HIERARCHY
ROOT Hips
{
  OFFSET -291.775 91.1868 299.031
  CHANNELS 6 Xposition Yposition Zposition Zrotation Xrotation Yrotation
  JOINT ToSpine
  {
    OFFSET -0.0105055 1.38907 -7.13956
    CHANNELS 3 Zrotation Xrotation Yrotation
    JOINT Spine
    {
      OFFSET 0.0105055 10 1
      CHANNELS 3 Zrotation Xrotation Yrotation
      JOINT Spine1
      {
        OFFSET 0 12 1.60637
        CHANNELS 3 Zrotation Xrotation Yrotation
        JOINT Neck
        {
          OFFSET 0 27 2.26658
          CHANNELS 3 Zrotation Xrotation Yrotation
          JOINT Head
          {
            OFFSET 0 9 2.12705
            CHANNELS 3 Zrotation Xrotation Yrotation
            End Site
            {
              OFFSET 0 11 2
            }
          }
        }
        JOINT LeftShoulder
        {
          OFFSET 8 19.6109 2.86452
          CHANNELS 3 Zrotation Xrotation Yrotation
          JOINT LeftArm
          {
            OFFSET 12 1 0.681055
            CHANNELS 3 Zrotation Xrotation Yrotation
            JOINT LeftForeArm
            {
              OFFSET 19 0 -1.52608
              CHANNELS 3 Zrotation Xrotation Yrotation
              JOINT LeftHand
              {
                OFFSET 23 0 0
                CHANNELS 3 Zrotation Xrotation Yrotation
                End Site
                {
                  OFFSET 10 0 0
                }
              }
            }
          }
        }
        JOINT RightShoulder
        {
          OFFSET -8 19.6109 2.86452
          CHANNELS 3 Zrotation Xrotation Yrotation
          JOINT RightArm
          {
            OFFSET -12 1 0.681055
            CHANNELS 3 Zrotation Xrotation Yrotation
            JOINT RightForeArm
            {
              OFFSET -19 0 -1.52608
              CHANNELS 3 Zrotation Xrotation Yrotation
              JOINT RightHand
              {
                OFFSET -23 0 0
                CHANNELS 3 Zrotation Xrotation Yrotation
                End Site
                {
                  OFFSET -10 0 0
                }
              }
            }
          }
        }
      }
    }
  }
  JOINT LeftUpLeg
  {
    OFFSET 9 -7.17245 0
    CHANNELS 3 Zrotation Xrotation Yrotation
    JOINT LeftLeg
    {
      OFFSET 0 -44.1113 0
      CHANNELS 3 Zrotation Xrotation Yrotation
      JOINT LeftFoot
      {
        OFFSET 0 -36.1829 0
        CHANNELS 3 Zrotation Xrotation Yrotation
        JOINT LeftToeBase
        {
          OFFSET 0 -4.84184 13
          CHANNELS 3 Zrotation Xrotation Yrotation
          End Site
          {
            OFFSET 0 1 6
          }
        }
      }
    }
  }
  JOINT RightUpLeg
  {
    OFFSET -9 -7.17245 0
    CHANNELS 3 Zrotation Xrotation Yrotation
    JOINT RightLeg
    {
      OFFSET 0 -44.0551 0
      CHANNELS 3 Zrotation Xrotation Yrotation
      JOINT RightFoot
      {
        OFFSET 0 -36.1469 0
        CHANNELS 3 Zrotation Xrotation Yrotation
        JOINT RightToeBase
        {
          OFFSET 0 -4.92256 13
          CHANNELS 3 Zrotation Xrotation Yrotation
          End Site
          {
            OFFSET 0 1 6
          }
        }
      }
    }
  }
}
MOTION
Frames:	21
Frame Time:	0.0333333
-292.713 90.9609 299.617 9.27238 0.794042 129.708 0 0 0 0.443357 3.90761 -1.39779 2.65244 1.94387 -2.48239 8.42896 7.57821 0.361977 -3.33095 2.0853 4.19272 -30.2364 3.26847 -5.48661 -36.5379 16.7281 -22.4156 -2.75437 -6.17087 -6.00914 -14.2459 -0.1118 0.919876 22.27 4.31395 11.4979 56.2643 -1.01258 -11.3448 2.88366 -20.1812 2.53718 2.96687 0.0485197 1.87699 8.76637 20.1941 8.05993 -0.0149682 38.8497 -13.3254 6.39983 -3.41237 0.22365 2.28109 -9.20347 -10.5069 7.08346 -15.5551 -6.22414 0.0255297 26.3849 3.16636 -14.8841 -0.603043 -0.0847567 2.63619 -8.87446 -5.99089 
-290.33 91.4551 298.098 9.80695 0.953632 129.994 0 0 0 1.28199 4.80456 -1.26212 1.82657 1.66654 -2.28677 7.88148 6.15577 0.711032 -3.29646 2.28889 4.24599 -30.2614 3.18636 -5.25477 -38.1916 17.4462 -19.4185 -2.79476 -6.22806 -6.07728 -11.7366 0.122368 -1.33883 22.0576 4.26127 11.419 56.2331 -0.347414 -10.2798 3.12719 -19.5334 3.23192 2.64378 0.0324571 1.44954 10.2337 15.6978 9.21464 -0.10948 47.0273 -14.7919 10.0418 5.54607 -0.60784 1.23861 -7.92978 -4.48708 7.44263 -12.3197 -7.73978 0.200341 24.8751 4.54431 -18.2627 -0.0682287 0.00990098 3.5344 -12.5959 -8.10215 
-287.464 92.0454 295.957 10.3587 1.08894 129.84 0 0 0 3.24372 5.29057 -0.814255 0.106366 2.38148 -1.42083 7.14224 4.95351 1.05708 -3.29068 1.29317 4.22682 -30.4744 3.13566 -5.0665 -39.9838 18.3994 -15.7618 -3.06291 -6.97257 -6.01125 -9.55039 0.285792 -3.35463 21.8636 4.24227 11.4502 55.9158 0.914836 -8.4454 3.59876 -18.6502 4.60896 3.26338 0.0785753 2.52684 11.3051 9.59259 9.96596 0.178818 56.3468 -13.9421 10.397 6.96177 -0.723671 0.771875 -5.93877 -2.65284 7.98558 -8.42751 -7.51138 0.675057 23.097 4.50667 -19.9495 -0.482295 -0.0746044 3.99419 -15.3146 -9.60995 
-285.186 92.466 294.234 10.1133 0.786587 130.55 0 0 0 5.18967 5.80885 -0.460081 -1.89292 2.16299 -0.429857 7.99592 5.04999 -0.400334 -4.84029 0.361382 3.41065 -30.0063 3.15625 -5.23593 -41.7903 18.8307 -13.039 -3.2912 -6.7048 -4.64879 -9.52002 0.274598 -3.29844 22.6819 4.44872 11.7537 54.8686 2.72048 -7.02294 3.90378 -15.4919 6.94559 3.21474 0.0879504 2.99208 11.4545 2.05155 9.08041 -0.0849451 63.3792 -11.8178 10.1481 -1.79844 0.221794 1.58261 -2.54408 -6.40404 8.29462 -6.16808 -5.76195 1.28252 21.7884 1.39749 -19.063 -2.89537 -0.492527 3.79108 -14.1741 -8.40893 
-283.04 92.8779 292.741 9.42488 0.767438 131.937 0 0 0 5.7765 7.43551 -0.0423615 -2.92776 0.462031 0.443797 8.54726 5.34128 -1.80373 -5.95211 -0.118789 2.45345 -29.4258 3.17906 -5.4366 -43.7795 18.8074 -10.0327 -3.35151 -6.17645 -4.03924 -9.81342 0.241746 -2.81743 23.3144 4.56996 11.855 53.3639 3.87902 -5.64001 3.63123 -11.7603 8.83541 2.60066 0.0517402 2.29751 10.5411 -5.7591 7.98897 0.0422921 66.4916 -10.4216 13.4094 -7.2146 0.837197 1.31736 -2.70974 -5.28472 8.19541 -3.93631 -4.4562 1.90439 19.6964 -1.52426 -19.1269 -4.27097 -0.722039 3.7381 -13.9312 -8.10366 
-280.775 93.4841 290.643 8.87274 1.24398 132.34 0 0 0 7.19669 8.27845 0.450108 -4.73081 0.0870391 1.55657 7.55167 5.55771 -2.12927 -5.62921 -0.542434 1.70981 -29.5836 3.12892 -5.25604 -44.8051 19.4591 -6.56905 -3.41846 -7.41718 -4.3169 -9.65387 0.17793 -2.09215 22.6988 4.376 11.5009 52.4257 5.63847 -3.11317 3.89851 -11.3276 9.64512 2.85328 0.101346 4.09124 8.28914 -11.2981 6.98089 -0.0562615 64.346 -6.82613 13.9063 -11.0351 1.35627 1.2963 -2.39688 -5.24955 7.39548 -0.90361 -3.57822 1.9347 17.9408 -2.96621 -17.1779 -6.5379 -0.975333 3.23034 -11.4849 -5.70351 
-278.434 93.8392 288.119 7.99457 1.61321 132.707 0 0 0 9.61902 7.28183 0.924644 -8.29845 1.47079 2.93026 8.33113 5.41301 -3.10598 -6.56082 -0.795501 1.1831 -27.9074 3.05585 -5.47488 -47.012 18.1083 -4.18087 -3.33071 -8.10373 -3.23369 -9.58037 0.11009 -1.31668 23.3999 4.55135 11.7364 50.3948 6.84273 -0.743787 4.0832 -11.2761 10.8156 2.76671 0.125143 5.17595 5.49229 -16.1388 5.6902 0.0108053 59.1925 -3.73494 11.2663 -14.3798 1.39843 0.812592 3.07156 -3.70337 6.23338 2.15414 -4.29278 1.94341 15.8821 -2.41256 -16.5714 -8.0919 -1.18597 3.02059 -10.7081 -5.00952 
-276.01 93.7096 285.625 7.12402 2.00516 132.886 0 0 0 11.0949 6.94096 1.48196 -10.5625 2.17223 4.07568 8.18836 4.95351 -3.68141 -6.75115 -0.794192 0.57728 -27.2192 3.06895 -5.68268 -48.3784 16.0641 -1.24706 -3.11523 -8.9639 -3.61803 -10.0336 0.0948337 -1.08332 23.4789 4.65181 12.0399 48.3575 7.43193 1.80689 3.97447 -10.6692 11.6956 2.13195 0.0892924 4.793 2.93554 -19.8528 5.02755 -0.0882126 51.3041 -1.22022 10.158 -14.0352 1.2383 0.292464 3.3097 -2.02667 5.23918 4.60727 -5.54462 1.77716 15.1171 -1.75225 -16.7208 -10.2493 -1.49805 3.20692 -11.5016 -5.51183 
-273.489 93.2464 283.208 6.72027 2.36414 132.345 0 0 0 12.0309 7.93953 1.83713 -11.3527 1.73445 4.72151 5.80745 4.1799 -2.8394 -5.55596 -0.584826 0.326225 -28.6535 3.04095 -5.2362 -47.7505 15.3685 2.49911 -3.01056 -10.3447 -5.22658 -10.2878 0.130356 -1.44425 22.1619 4.40986 11.8835 46.8109 8.83949 5.6228 3.90584 -9.78195 11.8627 1.73221 0.0715514 4.74422 1.34617 -21.7152 6.315 0.160389 40.3039 -0.89651 11.6456 -8.81532 0.910658 0.575213 -2.17262 -1.93726 4.57918 6.57122 -6.61104 1.31748 16.3979 -0.770779 -16.9324 -13.7369 -2.06308 3.13048 -11.1546 -5.52684 
-270.735 92.5893 280.66 6.89089 2.55276 131.434 0 0 0 13.1964 9.18692 2.11412 -12.0702 1.08693 5.20909 3.69577 3.86812 -1.96202 -4.76451 -1.09041 0.289429 -29.9878 2.97719 -4.74447 -47.2472 13.8566 6.10643 -2.67047 -9.9279 -6.69771 -10.5018 0.105131 -1.15439 21.583 4.4788 12.4212 44.5965 9.37852 8.92182 3.72414 -9.03141 12.2104 1.64831 0.0647269 4.45195 0.931617 -21.5917 8.72663 -0.561961 27.0688 -2.89389 11.8397 -2.83261 0.286111 0.91829 -4.14297 -3.15302 4.47971 9.35136 -7.33436 0.866007 16.9219 1.123 -17.4045 -16.5024 -2.53519 3.07135 -10.7056 -6.96217 
-267.653 91.6769 277.853 7.38262 2.61379 130.609 0 0 0 14.4566 9.7117 2.38548 -12.8161 0.9092 5.65362 2.65394 3.97807 -1.48517 -4.44006 -1.79708 0.325169 -30.7945 2.95184 -4.49497 -47.0747 11.7904 9.48707 -2.1008 -8.52761 -7.77761 -10.8862 0.0142742 -0.142705 21.4328 4.56101 12.7904 41.8937 10.6058 11.8972 3.80436 -8.88686 12.9236 1.62888 0.047501 3.40973 0.804609 -20.1429 6.68005 -3.12533 13.43 -1.13592 11.7938 1.33168 -0.13043 1.11063 -4.9269 -4.00882 4.70063 12.9652 -8.04609 0.4546 16.5045 2.32612 -18.0364 -18.5957 -2.9798 3.2133 -11.3018 -7.54534 
-264.414 90.4763 274.867 7.59706 2.36185 129.889 0 0 0 15.4258 8.96094 2.80499 -13.1741 1.53751 6.05974 1.89256 3.39614 -1.09695 -4.25889 -1.77615 0.416573 -31.4096 2.90163 -4.23467 -47.0042 10.1224 11.7091 -2.50468 -11.3625 -6.97886 -10.6252 0.0789417 -0.872437 21.0929 4.45248 12.5877 39.9044 10.6692 15.5397 3.77519 -8.55959 12.4692 1.34772 0.035902 3.18392 0.523618 -20.32 3.14474 -3.05209 6.00488 3.12837 9.2442 1.17193 -0.109398 1.09558 -2.95567 -4.20391 4.62511 16.2549 -9.13758 0.52777 16.3931 3.35158 -19.2644 -20.7547 -3.55861 3.46863 -12.5889 -7.36495 
-261.238 89.3367 271.783 7.43273 2.33938 129.156 0 0 0 15.9468 7.97786 3.25566 -13.4963 2.52182 6.56973 0.881508 2.40017 -0.621872 -3.92104 -1.53212 0.489263 -32.5482 2.8682 -3.91886 -46.2753 9.27969 12.7257 -3.08824 -15.6884 -4.9369 -10.3793 0.148178 -1.62595 20.917 4.396 12.4828 38.8195 9.5845 18.1392 3.30941 -7.36697 12.492 0.60692 0.0193943 3.63164 -0.123632 -21.3547 2.54894 -2.19413 5.34584 4.17641 8.08321 -0.343043 0.0265634 0.810084 -1.65566 -3.13286 3.65753 19.5182 -10.4882 0.814449 16.0546 5.32022 -20.8173 -22.4125 -4.16439 3.74957 -13.9213 -7.14957 
-258.175 89.0671 268.929 6.74421 2.99965 127.77 0 0 0 15.4509 7.62336 3.84068 -14.5467 3.59459 7.59853 0.83316 1.35649 -0.493146 -4.01292 -1.24006 0.62414 -33.372 2.76534 -3.50504 -45.1715 8.50846 12.5945 -2.83896 -16.2119 -1.85563 -10.7118 0.101781 -1.09003 21.1496 4.53128 12.8397 38.3484 9.02115 18.7421 2.74952 -6.59174 14.6107 0.241826 0.00685683 2.90494 -0.475951 -21.785 3.17634 -3.22616 8.20588 3.71815 8.64259 3.95431 -0.28898 0.958738 -4.14893 -3.31405 1.76412 23.0736 -11.4322 0.661297 13.745 7.65586 -20.686 -20.5381 -3.79919 4.47073 -17.3049 -5.92356 
-255.049 89.5574 266.104 5.54914 3.99609 126.286 0 0 0 14.2826 7.26449 4.38979 -16.1038 4.59534 8.72476 1.50714 0.166686 -0.506186 -4.16304 -0.752433 0.852299 -33.3544 2.61646 -3.12902 -44.4954 7.63812 11.555 -2.43302 -17.2906 1.52731 -10.7235 -0.00889549 0.102241 21.2969 4.62572 13.0963 39.5695 8.28486 18.6279 2.14484 -5.69867 16.6087 -1.26875 -0.0270788 2.35494 -1.12038 -22.778 4.25882 -4.3456 13.505 3.45884 6.53184 8.45727 -0.490418 0.859813 -3.54759 -2.87337 -0.53947 25.6313 -11.6641 0.0252965 12.0784 10.004 -18.6344 -16.6281 -2.76342 5.31483 -20.9435 -6.33832 
-251.702 90.0545 262.977 4.14789 5.22208 125.607 0 0 0 12.8711 6.39962 4.70861 -17.5701 5.10198 9.34729 2.60088 -0.130725 -0.710941 -4.22168 -0.494639 0.997061 -32.6793 2.65854 -3.35638 -44.4984 7.18829 10.6087 -2.06559 -18.9452 3.56743 -10.586 -0.081317 0.876403 22.3461 4.89735 13.45 40.8226 8.10241 16.803 1.63198 -4.56991 18.5943 -2.5307 -0.0799379 3.78047 -2.62314 -23.5406 6.00784 -4.67462 19.4344 1.82922 4.94535 6.72388 -0.292113 0.361724 0.622965 -1.68469 -2.92097 26.2348 -11.5617 -0.909396 13.8804 10.5356 -19.7192 -9.70669 -1.62844 7.22611 -29.6735 -6.32051 
-248.364 90.6196 259.877 2.95504 6.16198 125.663 0 0 0 10.9793 5.54964 4.52534 -17.2613 4.67191 8.81577 2.53244 0.793109 -0.38203 -3.69745 -0.680283 1.19291 -32.5345 2.78659 -3.70947 -44.6254 7.10181 9.87657 -1.9357 -20.0073 3.86768 -10.4957 -0.050932 0.549749 21.9296 4.93331 13.8153 43.2654 9.51417 15.2578 1.57637 -4.30694 19.023 -0.953135 -0.0439077 3.74122 -4.04363 -22.9788 10.3813 -3.72653 24.2682 -2.81394 5.83789 2.84622 -0.134275 0.241747 2.31634 -1.50516 -5.1542 23.9757 -7.95064 -1.11393 21.2708 7.04026 -20.0925 -2.42801 -0.461495 9.8806 -37.1172 -3.01882 
-245.212 91.4717 256.862 2.34293 7.02261 126.174 0 0 0 9.17823 5.15208 3.8675 -16.2827 4.21891 7.75401 2.54261 1.79477 0.203446 -3.54226 -1.0292 1.7553 -32.1508 2.93207 -4.16576 -44.9022 7.3396 7.97747 -1.98624 -19.8128 3.49688 -10.7119 0.0464397 -0.479079 21.1409 4.8185 13.8657 45.8468 11.655 14.5808 2.29263 -5.94187 18.1186 0.645794 0.0241327 3.68602 -5.4397 -20.3904 13.8096 -2.37022 25.9714 -7.05741 5.93161 -1.31987 0.0579804 0.110514 4.24565 -1.40737 -7.15453 19.3163 -4.5824 0.10138 33.5482 5.89321 -18.6184 2.44796 0.41544 8.26267 -32.1587 -3.93351 
-242.25 92.3755 254.021 2.13896 7.81369 126.747 0 0 0 7.60494 5.32816 3.16051 -15.4529 3.89658 6.82146 3.70004 2.56822 0.320127 -4.02262 -1.16817 2.35438 -30.8972 3.07073 -4.79617 -45.3985 8.46781 4.41627 -2.24263 -18.5911 2.94993 -10.4179 0.119305 -1.31359 21.9032 4.97059 13.9595 46.8223 12.8922 13.1599 2.41667 -5.94591 17.7365 0.917265 0.0337288 4.35537 -6.72485 -16.6909 13.6478 -2.51508 25.3667 -7.71459 5.76154 -4.12296 0.208814 -0.0130189 4.95937 -1.09517 -8.88546 13.5783 -4.2915 0.0147981 45.8167 8.51214 -16.7839 7.74394 1.12063 5.25118 -20.4827 -5.68646 
-239.58 92.9617 251.551 2.05702 8.31209 126.784 0 0 0 5.97519 5.78947 2.63387 -14.1236 3.75967 5.82587 3.91967 2.9156 0.868922 -3.99375 -0.960111 2.97801 -30.4812 3.08839 -4.93608 -44.79 10.0936 -0.275624 -2.65433 -17.9177 1.93156 -9.78726 0.154713 -1.80336 21.9984 4.97727 13.928 47.8969 13.5455 12.0397 2.02431 -4.42714 17.2694 1.17972 0.0388921 3.73973 -7.67169 -13.4878 11.6507 -3.4734 24.6465 -5.62428 7.53995 -6.06248 0.404528 -0.0330236 3.60149 -0.729734 -9.77298 7.4039 -3.06303 0.02744 55.6001 9.65846 -15.311 7.12459 0.981746 4.14295 -15.7321 -5.25802 
-237.072 93.2526 249.522 1.97841 8.33333 126.603 0 0 0 4.16534 6.6162 2.30891 -12.4767 3.06845 4.75625 4.14379 3.64612 1.2503 -3.95212 -0.577732 3.45924 -30.6317 3.06592 -4.84137 -43.0061 11.3225 -5.19603 -2.99271 -16.9783 0.223107 -9.72414 0.21558 -2.54413 22.3125 5.01344 13.875 48.7536 14.0156 10.5883 2.17942 -4.14689 16.2391 1.09155 0.0422297 4.50844 -7.88089 -11.4556 9.40366 -4.48253 25.0517 -3.02523 8.95172 -8.28499 0.6467 0.01223 2.48093 -0.665242 -9.17991 1.28173 -1.67056 -0.0913287 61.5323 8.02177 -20.125 1.51509 0.217119 5.16771 -20.2239 -5.8516 
